<?xml version="1.0" encoding="UTF-8"?>
<svg id="Layer_1" data-name="Layer 1" xmlns="http://www.w3.org/2000/svg" viewBox="0 0 922 919">
  <defs>
    <style>
      .cls-1, .cls-2, .cls-3, .cls-4, .cls-5, .cls-6, .cls-7, .cls-8, .cls-9, .cls-10, .cls-11, .cls-12, .cls-13 {
        stroke: #000;
      }

      .cls-1, .cls-2, .cls-4, .cls-5, .cls-7, .cls-8, .cls-10, .cls-11, .cls-12 {
        stroke-linejoin: round;
      }

      .cls-1, .cls-2, .cls-14, .cls-5, .cls-6, .cls-11, .cls-13 {
        fill: none;
      }

      .cls-1, .cls-3, .cls-4, .cls-5, .cls-6, .cls-8, .cls-11, .cls-12 {
        stroke-width: .25px;
      }

      .cls-1, .cls-12 {
        stroke-linecap: square;
      }

      .cls-2, .cls-5, .cls-7, .cls-8, .cls-9, .cls-10 {
        stroke-linecap: round;
      }

      .cls-2, .cls-9, .cls-10 {
        stroke-width: .75px;
      }

      .cls-3, .cls-6, .cls-13 {
        stroke-miterlimit: 10;
      }

      .cls-9 {
        stroke-linejoin: bevel;
      }

      .cls-13 {
        stroke-width: 3px;
      }
    </style>
  </defs>
  <path class="cls-13" d="M441.78,356.25l-67.53-.12c-1.27,0-2.31,1.03-2.3,2.3l.05,28.65c0,1.27,1.03,2.3,2.3,2.3h67.52c1.12,0,2.03.91,2.03,2.03v177.43c0,1.48,1.2,2.68,2.68,2.68h31.63c1.48,0,2.68-1.2,2.68-2.68l-.03-177.19c0-1.27,1.03-2.3,2.3-2.3l65.49-.03c1.3,0,2.36-1.06,2.36-2.36l-.03-28.59c0-1.3-1.06-2.36-2.37-2.36l-65.69.15c-1.15,0-2.09-.93-2.09-2.09l-.06-62.15c0-.82-.66-1.48-1.48-1.48h-34.07c-.82,0-1.48.66-1.48,1.48l.15,62.27c0,1.14-.92,2.06-2.06,2.06Z"/>
  <path class="cls-10" d="M409.34,276.55c1.43,3.01,2.87,6.03,4.3,9.04,1.3,2.72,2.59,5.44,3.89,8.17,2.09,4.38,4.21,8.82,7.38,12.49-.91-1.69-.94-3.71-1.47-5.56-.47-1.64-1.33-3.13-2.09-4.65-2.87-5.78-4.31-12.24-7.61-17.79-.26-.43-.52-.86-.73-1.31-.16-.36-.29-.73-.43-1.09-.23-.61-.49-1.21-.75-1.8-.83-1.89-1.65-3.79-2.48-5.68-.34-.77-.68-1.56-1.17-2.24-.36-.5-.8-.94-1.24-1.38-.67-.67-1.32-1.4-2.04-2.01-.83,4.83,2.44,9.67,4.42,13.82Z"/>
  <ellipse class="cls-10" cx="376.69" cy="265.9" rx="1.88" ry="1.82"/>
  <path class="cls-2" d="M330.96,229.3c.23.84.52,1.63,1.13,2.25.32.33.69.61,1,.96.38.43.66.94.95,1.44,2.18,3.85,5.32,7.13,7.97,10.67.73.97,1.78,1.89,2.32,2.86,4.59,8.28,12.61,15.2,19.32,22.35,1.73,1.84,2.97,3.15,4.6,4.8,4.84,4.92,8.57,10.86,13.48,15.72.52.52,1.58.93,1.83.23-1.62-2.41-3.26-4.81-4.9-7.2-4.49-6.58-9.02-13.21-14.6-18.9-1.27-1.3-2.6-2.55-3.8-3.91-1.04-1.18-1.99-2.44-2.95-3.69-7.07-9.19-15.2-17.54-23.07-26.05-.82-.88-1.57-2-2.77-1.92-.28.02-.73.52-.49.39Z"/>
  <path class="cls-6" d="M427.74,312.95s.45,1.17.83,1.44c.05.03-.37.22.02.66.86.99.84.95,1.27,1.43.25.29.62.6.97.45.1-.35.09-.72-.02-1.06-.04-.11-.08-.21-.12-.32-.22-.51-.43-1.02-.65-1.53,0-.07-.11-.08-.18-.06-.03-.19-.05-.38-.08-.57,0-.07-.02-.14-.07-.19-.05-.04-.11-.06-.18-.08-.17-.05-.32-.17-.41-.32-.18-.3.07-.79-.02-1.13s-.26-1.88-.53-1.66c.29-1.22-1.26-1.48-1.76-.32s1.11,4.31.93,3.26Z"/>
  <g>
    <path d="M428.03,337.95c-2.2-2.15-4.54-4.11-6.8-6.02-3.31-2.79-6.73-5.67-9.7-9.1-.54-.62-1.3-1.26-2.04-1.88-.69-.58-1.41-1.19-1.95-1.77-.55-.6-1.11-1.17-1.67-1.73-.59-.6-1.18-1.19-1.76-1.83-.41-.46-.86-.9-1.3-1.33-.71-.7-1.45-1.43-2.05-2.25-.25-.34-.48-.7-.71-1.06-.35-.54-.71-1.1-1.14-1.6-.12-.13-.28-.27-.45-.42-.58-.5-.98-.9-.71-1.37,2.82,1.52,5.33,3.34,7.28,5.26,1.15,1.14,2.18,2.44,3.17,3.7.57.73,1.14,1.45,1.74,2.15,1.9,2.23,4.1,4.23,6.22,6.17,1.78,1.62,3.61,3.3,5.27,5.09.77.84,1.52,1.72,2.24,2.57.8.95,1.64,1.93,2.5,2.85.72.77,1.43,1.6,1.84,2.56Z"/>
    <path d="M397.83,307.76c2.76,1.5,5.22,3.29,7.13,5.18,1.15,1.14,2.17,2.43,3.16,3.69.56.71,1.14,1.45,1.75,2.16,1.91,2.23,4.11,4.24,6.23,6.18,1.78,1.62,3.61,3.29,5.26,5.09.77.83,1.51,1.71,2.24,2.57.81.95,1.64,1.93,2.51,2.86.54.57,1.07,1.19,1.47,1.86-2.04-1.95-4.18-3.75-6.26-5.5-3.3-2.78-6.72-5.66-9.68-9.08-.54-.63-1.31-1.27-2.05-1.9-.69-.58-1.4-1.18-1.93-1.76-.55-.61-1.12-1.18-1.68-1.74-.58-.58-1.18-1.19-1.75-1.82-.42-.46-.87-.91-1.3-1.34-.71-.7-1.44-1.42-2.03-2.23-.25-.34-.48-.7-.71-1.05-.35-.55-.71-1.11-1.15-1.62-.12-.14-.29-.28-.46-.43-.57-.49-.83-.78-.73-1.1M397.73,307.42c-.63.85.63,1.49,1.1,2.03.71.81,1.21,1.78,1.85,2.65.97,1.32,2.25,2.37,3.35,3.59,1.12,1.25,2.3,2.32,3.43,3.56,1.12,1.22,2.95,2.47,3.98,3.65,5.12,5.91,11.37,10.03,16.9,15.51-.36-1.19-1.2-2.21-2.06-3.12-1.64-1.75-3.11-3.66-4.74-5.42-3.63-3.95-8-7.18-11.49-11.26-1.66-1.94-3.11-4.07-4.92-5.86-2.13-2.1-4.77-3.93-7.41-5.34h0Z"/>
  </g>
  <path class="cls-12" d="M492.96,778.04c.73,0,1.26-3.47,1.4-4.21,1.77-9.4,22.28-20.43,25.4-22.09,7.67-4.06,14.06-6.68,21.45-9.7,10.9-4.46,14.51-5.26,21.45-9.45,9.45-5.7,13.36-10.61,14.43-12,1.79-2.34,5.24-6.93,6.77-13.91.92-4.22,1.67-9.36.64-9.7-.87-.28-2.1,3.1-5.23,6.77-2.75,3.21-5.79,5.27-10.47,7.79-8.48,4.56-15.65,7.02-25.53,10.85-11.22,4.35-16.97,6.6-23.62,10.34-6.81,3.82-10.26,5.77-14.3,9.57-14.79,13.95-14.04,30.92-13.28,33.96.11.46.45,1.79.89,1.79Z"/>
  <path class="cls-12" d="M430.79,776.51c-.16.04-.47-3.62-3.45-7.53-1.4-1.84-2.72-2.84-6.77-5.87-5.24-3.92-7.86-5.87-8.43-6.26-8.27-5.62-21.28-10.56-33.06-15.7-14.06-6.14-21.22-9.33-27.45-15.06-5.37-4.95-9.8-10.87-11.87-18.26-1.43-5.11-.7-9.77-.89-10.98-.09-.56,1.22,2.38,3.57,5.49.49.65,2.26,2.93,6.38,5.87,3.6,2.57,6.17,3.64,13.15,6.77,11.69,5.24,10.29,4.86,14.68,6.64,6.55,2.66,6.93,2.4,13.53,5.11,3.96,1.62,8.37,3.43,13.15,6,2.78,1.5,9.99,5.38,14.94,10.09,13.24,12.6,12.89,33.61,12.51,33.7Z"/>
  <path class="cls-12" d="M354.74,700.34c.83,2.96,3.1,4.9,13.28,10.21,8.8,4.59,12.65,6.04,21.06,10.21,8.05,3.99,12.08,5.99,14.55,7.79,8.05,5.86,11.11,9.36,15.19,10.6,1.84.56,2.46-3,2.81-4.21,5.36-18.68,2.68-6.99,9.19-26.77,3.45-10.47,3.71-17.43,4.51-27.23.58-7.17,1.32-19.91-.09-28-6.17-35.53-44.42-53.52-63.66-63.32-7.02-3.57-13.2-4.43-24.81-10.72-5.02-2.72-8.68-5.87-19.36-14.21-14.18-11.07-20.72-17.29-26.04-22.21-22.9-21.17-33.06-32.63-39.91-41.28-1.96-2.47-5.45-6.17-10.72-11.49-6.12-6.16-17.91-4.62-18.55-2.72-.18.53.43,1.17.77,1.53,4.87,5.21,8.28,11.68,13.28,16.77,1.72,1.75-2.71-2.66,11.83,13.7,17.98,20.25,26.98,30.37,32.43,34.81,7.09,5.77,16.18,13.17,21.02,15.49.45.22,2.69,1.26,2.55,1.7-.14.44-2.6.04-3.4-.09-8.47-1.37-15.66-6.89-15.66-6.89-10.01-7.7-17.49-15.81-18.13-16.51-11.5-12.58-17.25-18.87-19.74-21.79-7.04-8.23-13.6-16.12-28.43-34.47-10.29-12.74-11.11-17.06-20.6-25.62-6.05-5.46-16.4-4.83-17.87-2.21-.82,1.45,1,3.57,6.89,12,2.95,4.22,5.68,8.58,8.68,12.77,9.07,12.65,8.93,12.91,14.55,20.68,12.07,16.68,23.38,30.19,28.77,36.51,13.2,15.47,19.95,23.29,27.4,27.83,4.82,2.93,12.92,7.08,12.34,8.6-.43,1.13-5.42.14-5.7.09-7.97-1.61-13.19-7.2-14.89-9.02-23.58-25.2-14.62-13.82-24.09-25.45-8.56-10.51-12.83-15.77-17.45-21.87-18.35-24.28-26.4-37.13-32.17-45.19-3.53-4.94-6.34-8.17-12.17-16.26-5.93-8.22-19.44-8.75-21.53-5.7-.71,1.04.56,2.39,5.45,11.57,2.39,4.49,2.38,4.7,3.91,7.57,10.36,19.37,25.79,42.89,25.79,42.89,12.22,18.63,18.32,27.94,27.32,38.89,7.1,8.65,13.73,15.73,22.64,22.72,7.21,5.66,15.59,8.93,15.06,10.21-.38.91-4.88.06-8.17-1.11-3.72-1.32-6.36-3.21-10.98-7.06-5.04-4.2-7.56-6.3-10.55-9.36-12.27-12.53-22.89-27.15-22.89-27.15-7.56-10.41-14.1-19.4-21.45-32.34-4.65-8.19-9.92-18.48-20-32.6-1.14-1.59-2.09-2.89-2.72-3.74-.97-.94-2.46-2.19-4.51-3.23-5.58-2.86-13.41-3.25-14.98-.34-.44.81-.23,1.59.77,4.77,1.88,6,2.82,9,3.23,9.96,4.21,9.8,3.66,10.46,9.02,22.47,4.86,10.87,9.21,19.05,10.98,22.3,0,0,8.39,15.4,26.81,41.19,2.17,3.03,4.09,5.46,4.43,5.87.59.74,1.9,1.98,3.32,4,.16.22.46,1.13,1.28,1.96,0,0,.99.49,1.6.6,5.66,1.02,5.55,1.4,10.81,2.77.31.08.61.11.93.11,5.61-.11,10.93,3.41,22.35,8.87s-1.46-1.34,18.96,10.91c4.15,2.49,10.21,2.62,16.6,2.19,9.39-.63,15.88.73,28.51,2.55,29.31,4.23,48.84,13.52,53.36,15.74,5.15,2.53,11.33,5.97,17.28,12.17,1.97,2.05,5.8,6.38,9.02,12.77,3.24,6.42,4.86,12.94,4.26,13.19-.6.25-2.78-5.97-8.26-13.45-5.31-7.24-10.78-11.66-13.02-13.45-5.44-4.33-11.63-7.88-23.06-12.17-18.83-7.07-34.63-9.87-41.87-10.81-14.01-1.81-20.92-1.54-25.62-1.79-4.94-.26-8.51.38-16-.09-3.38-.21-5.13-2.99-6.13-3.83-10.82-9.18-26.39-14.69-31.06-16.34-1.86-.66-12.8-4.43-26.72-4.94-4.68-.17-8.1.09-11.83,1.36-6.72,2.3-13.68,6.69-13.02,9.19.27,1.02,1.64,1.09,6.13,2.72,2.93,1.06,5.72,2.46,8.6,3.66,2.32.97,18.21,10.04,40.68,27.83,5.38,4.26,8.94,7.74,16.85,13.53,1.71,1.25,4.67,1.88,10.13,3.74,9.34,3.2,16.51,5.37,20.94,6.72,2.03.62,8.96,2.77,22.81,7.06,20.89,6.48,23.51,7.41,26.04,8.34,14.73,5.44,12.31,5.9,19.15,7.57,5.86,1.43,10.07,1.68,11.83,4.94,1.91,3.52-1.36,6.27-.09,10.81Z"/>
  <path class="cls-12" d="M504.96,739.49c2.3-1.02,4.8-3.65,5.87-5.11,2.71-3.67,9.51-6.92,22.98-13.28,8.62-4.07,16.99-8.72,25.79-12.38,1.53-.64,4.36-3.17,9.32-6.64,2.55-1.79-.13-1.66-.38-11.74-.2-7.71,14.63-10.51,43.28-18.77,17.86-5.15,16.66-5.18,34.34-10.09,0,0,14.59-2.19,26.3-7.02,4.31-1.78,8.17-4.21,8.17-4.21,2.96-1.87,4.98-3.56,5.62-4.09,19.94-16.5,35.87-27.32,35.87-27.32,6.44-4.33,9.66-6.49,12.77-7.79,9.39-3.91,14.08-5.87,15.57-6.13,1-.17,2.51-.39,2.81-1.28.77-2.34-7.61-7.03-9.19-7.91-13.58-7.6-31.37-1.87-45.57,2.55-16.31,5.07-28.98,12.82-31.02,16.21-.23.38-1.36,2.43-3.57,3.19-1.55.53-2.96.2-3.32.13-5.24-1.1-31.02.97-47.49,3.83-5.62.98-14.57,2.57-25.79,6.51-9.58,3.37-19.22,6.66-29.74,14.43-6.63,4.89-16.06,12.04-19.15,24.13-.17.67-.14,4.02-.77,4.09-.41.04-.99-1.31-1.15-2.55-.32-2.54,1.12-4.66,1.66-5.49,3.11-4.77,1.9-5.94,5.11-11.36,3.81-6.44,8.81-10.36,12.77-13.4,8.37-6.44,15.95-9.41,24.38-12.64,2.71-1.04,11.88-4.51,24.64-7.15,4.22-.87,8.92-1.68,17.62-2.68,0,0,33.45-4.73,38.3-2.81.17.07.98.43,1.79.13.94-.35,1.34-1.39,1.4-1.53.7-1.55,8.63-9.49,34.98-18.26,5.02-1.67,8.94-2.78,15.19-5.49,3.77-1.63,6.8-3.16,8.81-4.21,1.32-1.53,3.24-3.82,5.49-6.64,3.25-4.07,17.46-22.16,32.94-53.87,9.15-18.75,13.79-26.67,16.34-38.68.66-3.09,3.66-7.96,1.66-10.21-2.61-2.94-11.35-.64-17.36,3.57-4.69,3.29-6.62,6.97-11.87,16.09-3.68,6.38-7.59,12.62-11.23,19.02-7.86,13.78-15.03,23.57-22.09,33.19-8.17,11.15-12.94,17.65-20.94,25.66,0,0-4.76,5.23-19.15,16.34-.55.42-2.53,1.93-5.49,3.06-2.61,1-6.53,1.93-6.89,1.15-.48-1.05,5.97-4.08,14.3-10.98,3-2.48,5.19-4.68,9.57-9.06,4.74-4.74,10.45-10.46,16.47-17.74,4.32-5.23,8.07-10.81,15.57-21.96,4.7-6.98,7.83-11.87,14.04-21.57,6.95-10.86,10.5-16.41,13.91-22.34,7.06-12.26,4.2-8.81,9.96-18.64,4.42-7.54,6.29-9.86,5.23-11.62-1.88-3.16-11.7-2.12-18.51,2.55-3.29,2.26-4.96,4.73-7.4,8.3-4.66,6.81-9.74,13.34-14.17,20.3-6.22,9.78-11.26,16.62-18,25.79-7.94,10.79-14.66,19.1-18.38,23.62-11.93,14.48-11.05,12.19-24.26,27.45,0,0-3.59,4.15-9.83,9.32-2.73,2.27-4.69,3.64-7.28,4.72-3.94,1.65-8.88,2.44-9.32,1.4-.45-1.07,4.33-3.57,9.7-7.4,5.99-4.27,9.82-8.3,17.49-16.34,8.22-8.63,14.87-16.93,27.83-33.19,9.37-11.75,14.05-17.62,17.87-23.11,8.82-12.64,8.75-14.69,14.3-21.06,3.49-4.01,5.97-8.8,9.19-13.02,1.63-2.14,2.56-3.27,2.17-4.34-1.01-2.74-10.07-3.18-16.72.38-2.97,1.59-4.47,3.54-8.04,8.17-7.11,9.21-10.66,13.82-12.64,16.6-1.81,2.54-1.87,2.49-15.57,19.28-18.82,23.05-18.36,22.71-21.45,26.17-10.62,11.92-10.39,9.84-21.7,21.83,0,0-4.26,4.51-12.51,10.47-1.15.83-2.96,2.1-5.62,3.06-3.7,1.35-8.11,2.1-8.43,1.28-.34-.88,4.09-3.28,6.77-4.85,8.36-4.92,14.47-11.11,26.68-23.49,5.14-5.21,9.51-10.24,18.26-20.3,7.73-8.89,10.2-12.38,16.47-19.4,1.67-1.87,3.23-3.83,4.85-5.74,6.08-7.17,6.99-8.11,6.64-9.19-.87-2.65-8.5-3.67-14.43-1.02-3.53,1.58-5.5,4.04-7.02,5.87-4.84,5.85-10.77,10.75-15.45,16.72-7.65,9.79-15.83,17.65-26.94,28.34-18.03,17.35-19.05,14.44-34.21,28.98-3.44,3.3-10.07,9.85-20.94,14.94-2.41,1.13-4.02,1.71-5.87,2.43,0,0-15.07,5.82-30.38,14.81-9.7,5.69-20.27,11.85-30.77,23.49-5.59,6.2-11.73,13.16-15.19,24.13-2.4,7.6-2.36,13.49-2.3,23.11.07,11.26.17,19.3,4.34,34.47,8.04,29.23,7.66,24.13,10.6,32.17.18.5.51,4.16,1.53,3.7Z"/>
  <path class="cls-1" d="M423.9,436.15c-2.31,2.24-4.51,4.6-6.57,7.07-.75.9-1.48,1.8-2.21,2.71-.6.75-1.2,1.49-1.8,2.24-.58.72-1.17,1.45-1.6,2.27-.26.49-.71,1.08-1.03,1.53-.88,1.23-2.03,2.06-3,3.21-.89,1.06-1.79,2.12-2.68,3.18-.49.58-.99,1.17-1.45,1.77-1.01,1.31-2.22,2.86-3.21,4.18-1.3,1.74-2.61,3.47-3.91,5.21-2.58,3.44-5.16,6.88-7.34,10.59-.88,1.49-1.73,3.04-2.66,4.46-1.09,1.65-2.44,3.11-3.75,4.58-.11.84-.03,1.15.15,1.75.18.58.95.79,1.53.58s.98-.71,1.36-1.18c2.31-2.88,4.61-5.76,6.92-8.63.96-1.2,2-2.34,2.87-3.6,3.46-5.02,8.01-9.55,11.18-14.88,7.09-11.94,6.48-9.83,10.03-14.55,2.45-3.26,4.58-6.75,6.86-10.13.35-.52.5-1.73.32-2.34Z"/>
  <path class="cls-12" d="M330.41,519.23l3.42-3.78c10.11-11.19,20.23-22.38,30.85-33.09,1.06-1.07,2.12-2.13,3.21-3.17,2.2-2.1,4.5-4.09,6.89-5.96.77-.6,1.25-1.38,1.86-2.14.45-.55.9-1.11,1.4-1.62,1.28-1.3,1.96-.94,3.14-2.33.56.22,1.74-.46,1.64.13s-.46,1.11-.84,1.57c-1.14,1.36-2.57,2.44-3.83,3.69-1.48,1.47-3.15,3.04-4.5,4.63-.74.87-1.78,1.71-2.55,2.55-.46.5-.94,1.16-1.4,1.66-1.77,1.92-2.87,3.79-4.64,5.71-1.08,1.17-2.17,2.35-3.38,3.39-1.1.94-2.33,1.75-3.29,2.84-1.84,2.1-2.08,2.92-3.58,4.38-4.33,4.23-2.68,2.15-3.75,3.34-6.06,6.7-5.53,5.44-8.14,8.35-1.62,1.8-1.55,1.28-2.25,2-.8.83-1.48,1.76-2.22,2.65-1.86,2.23-4.08,4.15-6.57,5.66-.27.16-.56.33-.87.33s-.6-.47-.61-.78Z"/>
  <path class="cls-12" d="M423.97,412.93l-20.51,16.39c-2.88,2.3-5.76,4.6-8.82,6.66-1.65,1.11-3.36,2.15-4.97,3.32-1.39,1.01-2.7,2.11-4.01,3.22-3.07,2.59-6.15,5.18-9.1,7.92-.74.68-1.46,1.37-2.18,2.08-.51.5-1.76,1.35-1.92,2.06-.14.61.43,1.55,1.02,1.78.75.3,1.66-.34,2.2-.8,12.94-11.1,26.08-21.96,39.23-32.82,1.22-1,2.43-2.01,3.65-3.01,1.06-.87,2.11-1.75,3.22-2.55.67-.49,1.36-.95,1.98-1.5,1.53-1.35,2.62-3.2,3.04-5.2-.35.11-.78.54-1.04.79-.64.62-1.1,1.12-1.79,1.67Z"/>
  <ellipse class="cls-10" cx="226.87" cy="281.7" rx="4.26" ry="4.12"/>
  <ellipse class="cls-10" cx="205.34" cy="292.17" rx="1.88" ry="1.82"/>
  <ellipse class="cls-10" cx="206.09" cy="410.77" rx="3.86" ry="3.48"/>
  <ellipse class="cls-10" cx="185.19" cy="425.24" rx="3.36" ry="3.25"/>
  <ellipse class="cls-10" cx="419.19" cy="200.76" rx="4.23" ry="4.08"/>
  <ellipse class="cls-10" cx="496.74" cy="171.58" rx="4.26" ry="4.12"/>
  <ellipse class="cls-10" cx="550.63" cy="193.09" rx="3.48" ry="3.36"/>
  <ellipse class="cls-10" cx="438.55" cy="137.12" rx="3.63" ry="3.5"/>
  <ellipse class="cls-10" cx="613.7" cy="238.25" rx="4.26" ry="4.12"/>
  <ellipse class="cls-10" cx="699.56" cy="263.91" rx="4.26" ry="4.12"/>
  <ellipse class="cls-10" cx="596.9" cy="168.76" rx="2.85" ry="2.76"/>
  <ellipse class="cls-10" cx="407.45" cy="560.69" rx="4.26" ry="4.12"/>
  <ellipse class="cls-10" cx="481.5" cy="586.17" rx="3.18" ry="2.99"/>
  <ellipse class="cls-10" cx="558.17" cy="515.94" rx="2.85" ry="2.76"/>
  <ellipse class="cls-10" cx="556.77" cy="482.34" rx="2.85" ry="2.76"/>
  <ellipse class="cls-10" cx="356.2" cy="512.76" rx="2.95" ry="2.85"/>
  <polygon class="cls-10" points="520.4 513.28 547.47 573.79 549.77 574.55 549.77 572.26 538.66 547.23 528.06 525.28 522.06 513.91 520.4 513.28"/>
  <polyline class="cls-2" points="538.4 476.77 570.32 516.98 591.26 539.7 591.51 538.17 567.77 508.81 548.36 486.09 538.91 476.38"/>
  <polygon class="cls-10" points="546.45 459.53 601.6 510.85 602.36 509.83 546.96 459.15 546.45 459.53"/>
  <polygon class="cls-10" points="606.83 535.74 563.55 490.55 608.11 534.72 608.11 536 606.83 535.74"/>
  <polygon class="cls-10" points="578.36 466.17 632.49 505.49 634.4 505.74 634.53 504.09 601.6 480.6 578.36 466.17"/>
  <path class="cls-10" d="M550.02,428.64c1.02.26,31.91,17.62,31.91,17.62l25.91,12.77.89-.64-.51-.89-26.43-14.55-31.4-14.81-.38.51Z"/>
  <polygon class="cls-10" points="613.98 461.7 619.47 465.15 621.89 466.3 622.66 465.79 622.02 464.89 620.23 463.49 616.66 461.96 613.34 461.45 613.98 461.7"/>
  <polygon class="cls-10" points="628.4 469.36 634.91 473.32 636.32 472.81 628.53 468.85 628.4 469.36"/>
  <polygon class="cls-10" points="645.64 478.04 652.66 482.64 655.6 483.28 655.47 482.38 651 479.83 645.77 477.53 645.64 478.04"/>
  <polygon class="cls-10" points="667.34 458.89 670.91 459.91 671.55 461.45 669.89 461.83 663.38 459.02 660.45 456.98 663.77 457.23 667.34 458.89"/>
  <polygon class="cls-10" points="655.72 462.47 675.77 471.4 678.19 471.79 678.57 470.38 655.72 462.47"/>
  <polygon points="679.21 464.38 686.11 468.21 690.06 468.98 690.83 467.83 688.15 466.3 679.21 464.38"/>
  <polygon class="cls-14" points="652.53 454.43 617.43 443.19 580.15 429.02 576.83 426.98 578.36 425.96 607.6 436.3 625.47 442.55 648.06 451.62 652.53 454.43"/>
  <path d="M514.4,465.02l1.28.13,3.83,5.87,5.36,8.3,7.02,10.21,6.89,10.34,7.28,12,4.09,7.28-.64.89-3.32-4.09-3.06-4.6-3.57-4.85-4.47-6.13-5.36-9.45-6.26-9.96-9.06-15.96M514.4,464.77c-.08,0-.16.04-.21.11-.05.08-.05.18,0,.26l9.06,15.96,6.26,9.97,5.36,9.44,4.48,6.15,3.58,4.85,3.06,4.59,3.33,4.1c.05.06.12.09.19.09,0,0,0,0,0,0,.08,0,.15-.04.2-.1l.64-.89c.06-.08.06-.18.01-.27l-4.09-7.28-7.28-12.01-6.9-10.35-7.02-10.22-5.36-8.29-3.83-5.87c-.04-.06-.11-.1-.18-.11l-1.28-.13s-.02,0-.02,0h0Z"/>
  <polygon class="cls-8" points="558.62 536.43 573.09 560.77 575.13 560.94 575.64 559.74 571.38 553.62 558.62 536.43"/>
  <polygon class="cls-5" points="508.23 532 516.74 561.11 517.94 562.98 518.45 561.28 511.13 538.98 508.23 532"/>
  <polygon class="cls-8" points="505.68 524 502.62 513.96 504.32 515.83 506.19 520.94 505.68 524"/>
  <polygon class="cls-8" points="499.21 505.45 497.17 495.4 498.87 498.64 500.57 502.38 500.91 506.64 499.21 505.45"/>
  <polygon class="cls-8" points="515.38 503.57 502.11 473.28 503.64 474.98 510.79 489.11 517.09 503.23 515.38 503.57"/>
  <polygon class="cls-8" points="494.45 488.26 492.74 481.96 495.13 486.21 495.98 488.77 494.62 488.94 494.45 488.26"/>
  <polygon class="cls-8" points="498.87 465.45 493.43 454.04 493.77 452.51 500.4 463.74 500.74 466.3 498.87 465.45"/>
  <polygon class="cls-8" points="510.45 458.81 508.74 458.64 499.04 441.45 500.06 441.11 510.79 456.77 510.45 458.81"/>
  <polygon class="cls-8" points="532.57 470.55 499.38 430.55 500.23 430.04 533.77 469.02 534.11 470.55 532.57 470.55"/>
  <polygon class="cls-8" points="539.72 454.38 500.4 417.62 498.53 415.57 501.43 417.28 510.11 425.28 521.17 434.64 530.87 442.81 539.55 451.32 542.62 453.7 542.62 455.74 540.91 456.26 539.72 454.38"/>
  <polygon class="cls-8" points="569.85 461.19 507.04 416.26 494.45 407.57 495.64 406.89 509.43 416.43 535.13 433.96 560.32 451.15 570.36 458.98 569.85 461.19"/>
  <polygon class="cls-5" points="542.96 424.77 540.06 424.43 524.74 416.26 501.6 403.49 503.13 403.49 526.11 414.72 543.3 423.23 542.96 424.77"/>
  <polygon class="cls-8" points="567.64 423.4 564.06 423.4 509.43 401.79 511.13 401.11 546.36 413.87 567.81 421.53 571.21 423.4 567.64 423.4"/>
  <polygon class="cls-8" points="567.47 406.72 561.68 406.04 549.26 402.47 547.21 401.45 555.72 402.47 564.4 404.34 567.98 404.17 567.47 406.72"/>
  <polygon class="cls-8" points="576.83 407.74 594.7 413.02 630.45 422.04 648.66 425.11 649.34 424.09 634.7 420.17 616.66 416.26 576.83 407.74"/>
  <polygon class="cls-8" points="595.21 397.53 576.83 396.34 564.23 394.13 565.43 393.11 579.72 394.13 593.85 394.81 597.26 394.81 599.47 396.51 597.77 397.53 595.21 397.53"/>
  <polygon class="cls-8" points="605.6 397.87 633 401.79 648.83 403.32 664.83 405.02 677.09 405.87 698.19 407.06 698.36 405.19 672.15 402.3 649.17 400.6 628.74 398.89 605.6 397.87"/>
  <polygon class="cls-8" points="683.04 395.15 710.96 398.89 724.23 399.4 741.77 400.09 741.6 398.04 719.47 395.83 706.19 394.98 682.7 394.47 683.04 395.15"/>
  <polygon class="cls-8" points="654.96 411.66 668.91 414.21 675.38 414.55 682.02 415.74 689.17 416.6 695.13 417.28 698.7 418.64 703.64 418.64 708.57 420.17 716.91 419.83 717.43 418.81 710.28 417.96 701.43 416.09 693.09 414.89 683.89 413.87 678.45 412.85 664.32 411.66 654.96 411.66"/>
  <polygon class="cls-8" points="664.66 427.83 684.4 432.94 693.77 435.83 706.7 438.89 715.21 441.28 724.74 443.32 731.55 445.19 737.17 446.21 740.4 445.7 743.81 446.04 743.47 443.66 740.57 442.13 728.49 439.57 718.45 437.7 705 434.81 691.04 431.74 675.38 429.19 664.66 427.83"/>
  <polygon class="cls-8" points="571.38 379.66 596.4 378.64 628.06 376.94 628.23 375.23 608.49 375.57 594.02 377.11 582.96 377.45 570.7 379.66 571.38 379.66"/>
  <polygon class="cls-8" points="634.19 377.28 643.38 376.77 643.21 374.89 636.57 374.89 634.02 375.57 634.19 377.28"/>
  <polygon class="cls-8" points="650.53 375.91 660.06 375.91 660.57 374.55 658.19 373.7 651.55 375.06 650.53 375.91"/>
  <polygon class="cls-5" points="671.13 374.55 695.98 375.23 717.94 374.38 737.85 373.02 739.21 372.68 738.7 370.47 722.7 370.64 696.66 372.68 671.13 374.55"/>
  <path class="cls-5" d="M689.34,361.45c.51,0,34.21-3.91,34.21-3.91l-2.55-3.91-14.81,3.06-16.85,4.77Z"/>
  <polygon class="cls-8" points="692.06 347.15 703.64 344.94 701.94 342.72 697.85 343.57 692.06 347.15"/>
  <polygon class="cls-8" points="671.81 349.53 683.38 349.02 682.87 346.3 676.91 347.15 671.81 349.53"/>
  <polygon class="cls-5" points="664.15 351.4 640.32 356.51 612.91 360.77 578.7 366.21 566.96 367.57 565.43 366.89 575.98 364.68 595.72 360.94 618.87 356.51 642.19 351.91 664.15 349.19 664.15 351.4"/>
  <path class="cls-8" d="M687.81,328.43c.68-.51,20.09-3.06,20.09-3.06l9.19-2.89-.17-2.21h-5.62l-10.04,3.23-13.45,4.94Z"/>
  <polygon class="cls-5" points="662.45 322.64 702.96 311.06 743.64 298.64 743.64 296.6 728.66 300.51 702.45 308.17 661.77 322.47 662.45 322.64"/>
  <polygon class="cls-8" points="618.53 336.26 626.7 333.87 642.02 329.28 646.62 327.23 645.6 325.36 638.79 327.23 627.38 332 618.53 336.26"/>
  <polygon class="cls-8" points="565.85 351.91 577.47 349.62 590.23 345.28 603.77 340.3 603.64 338.64 591 342.6 580.15 346.3 571.34 349.49 565.85 351.91"/>
  <polygon class="cls-8" points="552.83 342.85 563.81 338.77 565.34 337.74 564.06 336.6 560.36 338.13 552.83 342.85"/>
  <polygon class="cls-5" points="572.23 334.55 584.11 331.11 585.38 330.09 585.64 328.68 583.21 328.3 572.23 334.55"/>
  <polygon class="cls-8" points="594.7 325.23 615.26 316.94 631.09 310.3 654.96 299.45 676.02 289.49 678.96 287.96 675.38 287.7 667.47 291.28 656.49 296.13 641.68 302.26 625.47 309.4 609 317.45 594.7 325.23"/>
  <polygon class="cls-5" points="675.51 304.04 714.06 288.47 739.72 278.26 754.53 271.87 754.91 267.53 750.45 269.32 738.45 274.68 723 281.7 705.77 289.62 686.74 298.3 675.51 304.04"/>
  <polygon class="cls-8" points="649.98 288.09 666.57 281.32 674.74 277.62 679.98 275.57 682.28 273.53 682.28 271.74 677.3 271.62 668.36 276.72 658.66 282.09 649.98 288.09"/>
  <polygon class="cls-8" points="639.77 274.3 660.06 262.68 674.36 254.51 687.89 246.09 697.21 239.32 696.96 237.79 692.87 239.32 677.3 249.02 661.34 259.11 648.06 267.79 639.77 274.3"/>
  <polygon class="cls-8" points="705.38 233.57 712.66 229.49 711.38 228.72 705.26 233.06 705.38 233.57"/>
  <polygon class="cls-8" points="721.47 224.51 736.15 216.09 736.66 214.94 734.62 214.04 731.81 215.7 720.72 223.93 720.45 224.13 721.47 224.51"/>
  <polygon class="cls-5" points="656.49 245.96 694.4 217.87 694.53 215.7 691.72 215.96 676.15 229.23 656.87 244.55 656.49 245.96"/>
  <polygon class="cls-8" points="642.32 239.45 650.23 233.06 651 231.28 649.21 231.4 642.32 238.43 642.32 239.45"/>
  <polygon class="cls-8" points="626.36 251.7 635.43 244.94 635.55 243.79 632.49 244.55 626.36 251.7"/>
  <path class="cls-8" d="M622.4,284.89c.38-.13,7.4-4.72,7.4-4.72h-2.3l-5.11,4.72Z"/>
  <path class="cls-5" d="M608.11,293.45c.38-.13,7.79-4.34,7.79-4.34l.13-1.53-1.79.38-6.13,5.49Z"/>
  <polygon class="cls-8" points="581.43 309.28 603.13 296.38 601.21 295.87 591 302.64 581.43 309.28"/>
  <polygon class="cls-8" points="525.26 343.62 576.45 314.77 575.68 313.23 570.19 316.43 525.26 343.62"/>
  <polygon class="cls-8" points="528.45 329.45 565.85 301.49 564.45 299.83 559.6 304.3 542.49 317.45 528.45 329.45"/>
  <polygon class="cls-5" points="498.06 341.45 520.15 323.45 538.79 303.53 537.13 302.64 533.68 305.96 520.4 318.21 511.09 327.15 498.06 341.45"/>
  <polygon class="cls-8" points="497.17 320.89 507.77 303.91 507.26 302.51 506.23 302 505.47 302.64 495.77 321.28 497.17 320.89"/>
  <polygon class="cls-7" points="573.89 294.85 583.09 288.21 600.45 274.55 619.98 257.45 620.49 255.53 618.19 256.3 597.38 272.64 573.26 293.83 573.89 294.85"/>
  <polygon class="cls-7" points="543.77 297.02 593.55 245.7 592.66 244.68 543.13 296.77 543.77 297.02"/>
  <polygon class="cls-10" points="520.79 303.28 533.17 288.72 540.32 279.15 540.06 276.98 536.62 278.38 530.62 286.94 520.79 303.28"/>
  <polygon class="cls-10" points="605.43 232.17 615.13 223.62 626.36 212.26 634.28 203.57 643.6 193.36 647.3 189.4 646.79 187.49 645.13 188.38 632.49 202.17 624.57 210.98 613.98 221.96 605.43 232.17"/>
  <polygon class="cls-10" points="563.55 265.23 594.19 230.89 614.36 207.53 613.85 206.13 611.04 207.02 592.53 229.11 563.55 265.23"/>
  <polygon class="cls-10" points="546.19 269.83 567.89 241.74 587.3 214.55 600.19 195.15 600.19 193.74 598.53 194.38 565.47 238.94 546.19 269.83"/>
  <polygon class="cls-10" points="509.68 296.26 526.02 268.81 540.96 239.32 540.19 237.91 539.17 238.3 523.47 265.87 509.68 296.26"/>
  <polygon class="cls-10" points="543.64 233.45 548.49 226.94 547.72 225.28 545.94 225.28 543.64 233.45"/>
  <polygon class="cls-10" points="499.21 290.13 503.3 281.96 503.68 279.53 501.89 279.79 500.23 282.98 499.21 290.13"/>
  <polygon class="cls-10" points="488.11 276.98 491.94 265.87 491.3 263.7 489.89 264.72 488.49 269.32 488.11 276.98"/>
  <polygon class="cls-10" points="474.57 274.3 477.77 230.89 476.74 230.89 474.57 274.3"/>
  <path class="cls-10" d="M493.6,255.15l2.81-12.89-2.81,12.89Z"/>
  <polygon class="cls-10" points="505.34 271.11 519 239.83 534.19 195.15 533.43 195.15 516.06 238.55 505.34 271.11"/>
  <polygon class="cls-10" points="499.09 230.26 506.11 199.49 504.57 199.62 499.09 230.26"/>
  <polygon class="cls-10" points="487.72 223.87 494.49 191.96 490.66 191.7 487.72 223.87"/>
  <polygon class="cls-10" points="551.17 220.55 555.64 212.77 554.36 211.11 552.96 213.66 551.17 220.55"/>
  <polygon class="cls-10" points="565.21 221.19 592.66 180.34 590.87 178.17 564.7 221.45 565.21 221.19"/>
  <polygon class="cls-10" points="536.62 188.77 541.72 178.81 540.06 177.66 538.15 180.09 536.62 188.77"/>
  <polygon class="cls-10" points="544.4 170 548.23 159.79 547.09 159.79 543.4 169.69 543.38 169.74 544.4 170"/>
  <polygon class="cls-10" points="560.87 202.04 592.91 144.47 592.66 142.94 591.38 142.68 559.98 200.89 560.87 202.04"/>
  <polygon class="cls-10" points="597.38 134.26 597.65 133.83 601.21 128 597.38 134.26"/>
  <polygon class="cls-10" points="606.19 119.57 614.87 104.89 614.36 103.36 612.19 103.49 605.68 119.57 606.19 119.57"/>
  <polygon class="cls-10" points="514.4 219.02 537.77 145.23 534.83 143.45 513.64 218.26 514.4 219.02"/>
  <polygon class="cls-10" points="510.19 184.04 530.36 103.11 529.47 100.81 527.55 102.09 509.3 183.79 510.19 184.04"/>
  <polygon class="cls-10" points="459.13 274.55 457.6 208.43 456.45 208.81 458.23 274.94 459.13 274.55"/>
  <polygon class="cls-10" points="478.4 217.74 484.66 151.62 483.26 151.49 478.4 217.74"/>
  <polygon class="cls-10" points="467.81 201.02 470.23 147.02 472.4 146.89 467.81 201.02"/>
  <polygon class="cls-10" points="456.19 198.34 456.45 189.28 454.91 189.4 454.91 198.09 456.19 198.34"/>
  <polygon class="cls-10" points="443.81 276.6 441.13 257.06 439.72 256.81 443.81 276.6"/>
  <polygon class="cls-10" points="430.02 276.47 418.53 246.72 421.47 246.09 430.02 276.47"/>
  <polygon class="cls-10" points="440.36 249.4 438.06 235.49 436.02 235.62 439.21 249.79 440.36 249.4"/>
  <polygon class="cls-10" points="435.77 225.15 428.74 185.06 426.83 185.7 433.98 224.64 435.77 225.15"/>
  <polygon class="cls-10" points="456.45 178.43 454.28 112.17 451.47 111.66 454.4 178.43 456.45 178.43"/>
  <path class="cls-10" d="M453.26,104.13c.13-.51.13-10.72.13-10.72l-1.66-.13.13,11.36,1.4-.51Z"/>
  <polygon class="cls-10" points="452.87 84.09 453 67.11 450.06 66.98 451.09 84.47 452.87 84.09"/>
  <polygon class="cls-10" points="427.09 178.3 426.19 167.19 423.77 167.7 425.43 177.79 427.09 178.3"/>
  <polygon class="cls-10" points="423.89 157.49 423.38 149.06 422.36 147.15 420.57 147.79 420.96 150.85 421.98 158.38 423.89 157.49"/>
  <path class="cls-10" d="M402.32,185.96c-.13-.38-24.13-79.15-24.13-79.15l-2.04-.89-1.28,1.91,26.68,78.64.77-.51Z"/>
  <polygon class="cls-10" points="416.49 234.72 407.17 202.94 405.64 202.68 405.13 204.21 416.49 234.72"/>
  <polygon class="cls-10" points="390.32 199.62 386.62 198.85 386.23 201.28 402.19 237.15 403.34 236.89 390.32 199.62"/>
  <polygon class="cls-10" points="401.94 256.04 362.23 171.53 362.87 169.36 364.02 171.02 403.34 255.66 401.94 256.04"/>
  <ellipse class="cls-10" cx="350.87" cy="334.55" rx="4.23" ry="4.08"/>
  <ellipse class="cls-10" cx="278.33" cy="377.96" rx="3.17" ry="3.06"/>
  <ellipse class="cls-10" cx="328.88" cy="408.09" rx="3.17" ry="3.06"/>
  <ellipse class="cls-10" cx="376.3" cy="437.19" rx="1.06" ry="1.02"/>
  <polygon class="cls-10" points="341.17 438.47 372.57 425.45 397.09 413.96 419.55 402.21 396.32 411.66 371.55 421.36 339.38 436.68 341.17 438.47"/>
  <g>
    <polygon points="258.38 472.38 327.03 441.22 328.06 442.43 259.21 475.72 258.38 472.38"/>
    <path d="M326.92,441.68l.53.62-67.99,32.88-.65-2.58,68.11-30.91M327.13,440.77l-69.19,31.4,1.02,4.09,69.7-33.7-1.53-1.79h0Z"/>
  </g>
  <path class="cls-9" d="M224.49,454.3c1.28,0,38.55-12,38.55-12l-38.55,12Z"/>
  <path class="cls-9" d="M198.45,444.34c2.04,0,46.21-9.96,46.21-9.96l-7.66.51-39.57,7.66,1.02,1.79Z"/>
  <path class="cls-9" d="M280.15,437.7c.77,0,69.45-21.7,69.45-21.7l-69.45,21.7Z"/>
  <path class="cls-9" d="M281.94,492.34l3.83-2.81-3.83,2.81Z"/>
  <path class="cls-9" d="M295.98,484.43l7.15-4.85-7.15,4.85Z"/>
  <path class="cls-9" d="M309.77,475.74l6.13-4.34-6.13,4.34Z"/>
  <path class="cls-9" d="M322.53,467.32l53.62-33.45-53.62,33.45Z"/>
  <path class="cls-9" d="M323.55,468.09l52.6-34.21-52.6,34.21Z"/>
  <polygon class="cls-9" points="386.11 429.79 425.68 404.51 427.21 403.74 386.11 429.79"/>
  <path class="cls-9" d="M303.38,512l62.04-50.3-62.04,50.3Z"/>
  <polygon class="cls-9" points="302.11 510.21 303.49 509.12 363.5 461.64 365.68 459.91 302.11 510.21"/>
  <polygon class="cls-9" points="308.74 521.19 326.62 504.85 306.7 520.68 308.74 521.19"/>
  <polygon class="cls-9" points="329.43 543.15 343.72 526.04 342.45 525.28 329.43 543.15"/>
  <polygon class="cls-9" points="337.85 550.81 339.64 551.83 376.4 500.51 375.13 500.26 337.85 550.81"/>
  <polygon class="cls-9" points="377.94 538.81 380.49 531.91 378.7 532.17 376.15 539.06 377.94 538.81"/>
  <polygon class="cls-9" points="385.34 524.77 415.72 468.85 413.68 468.09 385.09 519.91 385.34 524.77"/>
  <polygon class="cls-9" points="419.81 460.68 429.51 441.79 427.47 441.79 419.81 460.68"/>
  <path class="cls-9" d="M420.83,490.81c-.26-1.28,3.57-10.98,3.57-10.98l-7.15,10.21,3.57.77Z"/>
  <polygon class="cls-9" points="427.21 471.66 432.06 461.45 425.17 472.17 431.04 459.4 427.21 471.66"/>
  <polygon class="cls-9" points="411.38 594.21 415.47 581.7 412.15 595.23 416.74 581.45 411.38 594.21"/>
  <polygon class="cls-9" points="424.91 601.62 429.77 574.81 422.11 601.87 427.72 601.62 431.3 573.79 424.91 601.62"/>
  <polygon class="cls-9" points="438.19 615.15 441.26 586.81 436.4 614.38 438.19 615.15"/>
  <polygon class="cls-9" points="470.87 628.43 470.11 590.38 468.57 590.38 468.06 627.4 470.87 628.43"/>
  <polygon class="cls-9" points="496.4 601.11 495.38 588.09 496.66 587.32 496.4 601.11"/>
  <polygon class="cls-9" points="527.55 586.04 522.19 575.83 524.23 585.28 527.55 586.04"/>
  <path class="cls-9" d="M389.68,571.49c.51-4.34,27.06-75.06,27.06-75.06l-26.81,76.09-.26-1.02Z"/>
  <polygon class="cls-9" points="417.26 575.32 417.47 574.29 430.53 511.23 428.23 510.98 417.51 560.77 415.21 574.3 417.26 575.32"/>
  <polygon class="cls-9" points="363.13 565.62 369.26 553.87 367.47 553.62 363.13 565.62"/>
  <polygon class="cls-3" points="369.6 300.6 375.21 306.3 381.51 311.49 387.3 315.83 392.83 320.09 397.94 323.49 398.53 324.17 399.38 324.17 399.3 323.15 398.02 321.96 395.55 319.74 392.66 317.45 385.85 311.49 382.45 308.6 380.06 306.72 378.11 304.77 375.81 302.64 372.91 300.26 371.21 298.81 369.51 298.47 369.6 300.6"/>
  <polygon class="cls-3" points="387.21 296 387.3 297.62 388.15 298.55 389.17 299.4 390.28 300.6 391.72 301.87 393.77 303.74 394.87 304.68 395.47 304.77 395.55 303.91 394.96 302.81 393.34 301.11 391.89 299.49 390.45 297.45 388.83 295.66 387.21 294.55 386.19 294.13 387.21 296"/>
  <polygon class="cls-3" points="374.45 245.02 374.53 246.81 375.98 249.11 383.38 261.87 389.09 271.32 396.66 282.47 401.77 289.79 409.51 300.94 410.53 301.19 410.62 300.17 410.11 298.98 396.49 276.6 389.94 266.38 386.19 260.34 381.43 253.62 379.47 250.72 375.98 245.87 374.45 245.02"/>
  <polygon class="cls-3" points="365.94 232.34 366.19 233.87 367.13 235.57 370.79 240.17 371.55 240.68 371.72 239.66 371.21 238.64 369.68 236.09 368.74 234.21 367.72 232.51 366.19 231.32 365.94 232.34"/>
  <polygon class="cls-3" points="357.85 218.81 357.68 220.51 359.55 223.15 362.19 226.47 363.21 226.98 363.13 225.7 362.62 225.02 361.51 222.98 360.15 221.02 358.96 219.06 357.85 218.81"/>
  <polygon class="cls-3" points="386.02 252.43 357.77 203.91 322.02 141.96 321.77 140.34 327.13 141.53 352.23 188.17 374.79 229.11 386.02 252.43"/>
  <polygon class="cls-3" points="352.91 210.38 315.38 154.64 315.47 152.17 317.09 152.51 341.43 189.96 352.91 210.38"/>
  <polygon class="cls-3" points="310.96 145.45 305.85 139.15 306.19 136.77 307.64 137.79 310.96 145.45"/>
  <polygon class="cls-3" points="301.77 131.23 291.38 116.09 291.72 113.87 293.43 114.89 301.77 131.23"/>
  <polygon class="cls-3" points="320.32 216.26 291.81 187.74 292.32 183.83 296.23 185.02 320.32 216.26"/>
  <polygon class="cls-3" points="410.02 344 352.91 307.83 352.15 306.47 354.19 306.21 410.45 342.89 410.02 344"/>
  <polygon class="cls-3" points="391.04 343.06 351.38 324.68 351.38 323.4 353.34 323.32 390.79 341.79 391.04 343.06"/>
  <polygon class="cls-3" points="360.49 345.53 329.17 335.49 329 334.3 330.62 334.3 360.49 345.53"/>
  <polygon class="cls-3" points="387.13 458.89 428.91 415.57 429.85 415.49 429.94 416.77 389.51 460.26 388.15 460.68 386.62 460.68 387.13 458.89"/>
  <polygon class="cls-3" points="358.87 414.47 396.83 402.38 396.57 401.28 358.19 412.34 358.87 414.47"/>
  <polygon class="cls-3" points="348.32 401.62 348.49 403.4 359.47 401.45 360.91 400.43 359.13 399.49 348.32 401.62"/>
  <path class="cls-3" d="M327.38,370.47s-.03.16-.06.4c-.11.73-.3,2.19-.11,2.06.26-.17,11.49.85,11.49.85l.17.77,18.47-.34-.17-1.02-6.21-.51-8.51-1.11-9.28-1.02-5.79-.43v.34Z"/>
  <polygon class="cls-3" points="296.32 388.68 341.51 388 341.68 387.06 351.98 387.32 358.28 386.47 358.02 385.11 322.36 385.53 309.94 385.96 309.94 387.06 295.81 386.98 296.32 388.68"/>
  <polygon class="cls-3" points="280.74 389.62 287.81 389.53 287.81 388.68 290.96 388.77 291.04 387.66 280.57 387.57 280.57 389.11 280.74 389.62"/>
  <polygon class="cls-3" points="263.81 389.62 265.94 389.62 266.02 390.3 269.26 390.55 269.34 389.45 275.04 389.7 274.96 388.17 266.45 388 266.53 388.85 264.15 388.94 263.81 389.62"/>
  <polygon class="cls-3" points="219.13 423.15 219.04 424.51 224.49 424.68 224.32 423.83 227.47 423.66 227.13 422.89 230.7 422.55 230.79 421.62 231.64 421.36 231.21 420.43 225 421.79 221.26 421.79 221.43 422.47 219.13 423.15"/>
  <polygon class="cls-3" points="238.96 419.74 239.21 421.02 244.4 421.02 245.43 420.34 247.55 420.09 247.72 419.23 250.53 418.89 250.28 417.87 241.85 418.81 241.68 419.4 238.96 419.74"/>
  <polygon class="cls-3" points="185.26 391.49 185.34 393.11 214.96 393.11 215.04 392.26 228.91 392.43 228.91 391.32 240.57 391.66 240.49 390.55 250.96 390.81 250.96 389.87 255.04 389.62 254.7 388.51 195.38 389.7 195.21 390.81 185.26 390.72 185.26 391.49"/>
  <polygon class="cls-3" points="166.87 393.02 168.32 393.19 168.49 394.04 171.3 393.96 171.21 393.11 176.23 393.19 176.83 393.11 176.74 391.57 168.83 391.49 168.91 392 166.96 392.43 166.87 393.02"/>
  <polygon class="cls-3" points="138.45 393.36 138.36 393.96 139.47 393.96 139.47 394.72 149.17 394.98 149.26 394.13 157.34 394.13 156.91 393.19 159.47 392.85 159.13 391.91 140.23 392.43 140.06 393.19 138.45 393.36"/>
  <polygon class="cls-3" points="185 373.45 184.91 374.98 199.64 375.4 199.64 376 214.36 376.26 214.45 376.85 228.4 376.94 228.49 377.7 240.15 377.87 239.89 376.85 230.28 376.34 215.3 375.32 200.66 374.38 184.66 373.19 185 373.45"/>
  <polygon class="cls-3" points="224.06 361.62 223.89 362.3 227.81 362.64 227.81 363.15 236.23 363.49 236.32 364.34 243.72 365.02 243.98 366.04 255.21 365.79 255.04 366.81 263.13 366.81 263.21 367.74 271.3 367.57 270.87 368.51 282.7 368.34 282.62 369.53 294.62 369.45 294.53 370.3 309.94 370.38 309.94 371.15 319.04 370.98 319.04 369.96 313.68 369.45 308.83 369.11 308.66 368.34 301.43 368.26 300.83 367.23 294.19 367.06 294.19 368.17 289.77 367.4 289.68 366.13 285.6 366.04 278.53 365.11 271.81 365.36 271.64 364.09 262.79 364.09 224.06 361.62"/>
  <polygon class="cls-3" points="348.74 356.43 348.74 357.7 356.66 359.83 360.15 359.91 360.23 359.32 357.34 358.64 354.28 357.53 351.04 356.85 348.74 356.43"/>
  <polygon class="cls-3" points="335.47 354.13 274.28 341.28 275.3 339.66 335.47 354.13"/>
  <path class="cls-3" d="M268.32,312.85s-.26,2.04.09,1.96,2.38.09,2.38.09l.17.77,1.62.09s.09,1.02.34,1.02,1.96-.17,1.96-.17l.43,1.19,1.79-.17.17.94,2.13-.43.09,1.19,2.13-.17.51.94,2.47-.26.17,1.11h2.38l-.43,1.11,2.72-.17-.17.94,2.13-.09.51.94,2.38-.17v.6l2.55.09v1.02l2.04-.17.43.94,1.96.26-.26.51,1.7.17,13.87,4.94.85.09-.26-.68-.68-1.19-28.85-10.55-19.32-6.64Z"/>
  <polygon class="cls-3" points="231.64 301.02 241.17 305.11 242.96 305.02 243.47 303.74 241.68 302.38 231.64 301.02"/>
  <polygon class="cls-3" points="250.7 306.89 261 311.4 262.62 310.72 261.09 309.7 257.34 308.34 250.7 306.89"/>
  <polygon class="cls-3" points="302.45 298.89 302.45 300 303.72 300.17 304.06 301.28 305.94 301.62 306.87 302.55 308.32 302.64 309.09 303.4 310.02 303.49 311.04 303.74 311.55 303.49 311.21 302.55 310.45 302.72 310.11 301.53 309 301.79 308.23 300.34 307.04 300.26 302.45 298.89"/>
  <polygon class="cls-3" points="315.38 306.38 315.47 307.15 316.57 307.23 317.26 307.91 318.19 307.91 318.19 309.45 319.55 309.02 320.15 310.72 321.09 310.04 321.94 310.98 322.87 310.72 323.21 311.83 324.4 311.57 325 312.94 326.28 312.34 326.36 314.13 327.55 313.28 327.47 315.15 328.74 313.87 329 315.83 336.91 318.3 338.02 318.38 337.6 317.45 337.26 316.17 336.57 316.34 336.49 314.04 334.53 314.81 315.38 306.38"/>
  <polygon class="cls-3" points="287.89 291.57 290.62 291.83 290.53 292.85 292.06 292.77 291.64 293.28 293.34 293.53 293.34 293.87 295.64 293.87 294.87 294.47 296.57 294.72 295.47 295.32 296.74 295.91 297.51 296.34 295.55 296.43 294.45 296.43 292.06 296.17 292.83 295.49 290.11 295.23 290.96 294.64 288.66 294.47 289.26 293.19 287.38 292.51 288.06 292 287.89 291.57"/>
  <polygon class="cls-6" points="258.06 417.02 258.32 417.91 261.38 417.85 265.4 417.91 265.21 417.15 271.34 417.15 271.79 417.09 271.91 416.32 278.74 416.19 278.49 415.3 283.98 415.11 283.91 414.4 290.3 414.34 290.36 413.77 294.83 413.45 294.89 412.74 299.36 412.55 299.36 411.79 303.26 411.91 303.45 411.15 307.91 411.02 307.91 410.06 312.77 410.19 312.64 409.43 316.98 409.36 317.11 408.53 320.94 408.53 320.87 407.83 324.45 407.51 324.38 406.74 325.53 406.49 325.4 405.02 325.28 404.26 325.85 404.26 331.21 404.26 336.89 404.19 339.45 403.36 336.96 403.68 325.79 404.83 324.45 404.96 324.45 405.79 319.15 405.98 319.85 406.43 313.6 406.81 313.66 407.38 306.13 407.64 306.13 408.4 300.7 408.66 300.89 409.3 295.21 409.3 295.34 410.13 290.62 410.13 290.62 410.89 285.89 411.09 285.96 411.91 281.36 411.98 281.49 412.55 276.83 412.68 276.64 413.45 273.06 413.38 273.06 414.66 269.49 414.47 269.49 415.11 264.89 415.17 264.77 416.06 260.49 416.32 260.62 416.89 258.06 417.02"/>
  <path class="cls-6" d="M170.39,339.11c1.41,0,2.82-.07,4.22.06,1.83.16,3.61.64,5.4,1.01,4.23.86,8.56,1.12,12.86,1.37,2.21.13,4.41.26,6.62.38,3.8.22,7.61.44,11.42.47-.28-.52-1.02-.56-1.58-.38s-1.1.51-1.68.49c-.58-.02-1.08-.37-1.6-.63-.73-.36-1.54-.54-2.34-.72-11.64-2.54-23.4-4.55-35.22-6.04-.94-.12-10.09-1-8.43,2.28.29.58,2.79,1.17,3.54,1.32,2.18.44,4.59.41,6.8.4Z"/>
  <polygon class="cls-4" points="175.2 317.4 175.17 319.09 177.04 319.11 177.05 319.96 179.74 319.93 179.8 320.76 182.51 320.83 182.56 321.61 183.51 321.63 183.53 323.39 189.93 323.37 192.71 323.36 192.71 324.18 196.39 324.21 196.36 325.07 200.07 325.1 200.07 325.79 204.68 325.95 204.69 326.72 208.37 326.77 208.39 327.59 212.06 327.61 212.07 328.45 216.72 328.45 216.73 329.29 221.27 329.31 221.29 330.18 225.86 330.16 225.88 331.03 230.48 331.02 230.47 331.86 234.18 331.86 234.18 332.7 238.77 332.74 238.8 333.51 243.38 333.56 243.43 334.41 247.05 334.44 247.1 335.24 251.63 335.31 251.69 336.04 256.23 336.13 256.32 336.94 260.95 336.94 260.9 336.14 257.27 336.1 257.23 335.27 253.6 335.26 253.57 334.41 250.81 334.45 250.82 333.6 248.02 333.59 248.03 332.71 243.41 332.71 243.39 331.87 239.72 331.85 239.71 331.04 236.93 331.01 236.94 330.17 233.28 330.15 233.29 329.34 229.56 329.31 229.56 328.5 226.79 328.48 226.8 327.62 223.1 327.61 223.13 326.74 219.43 326.74 219.44 325.9 215.72 325.88 215.76 325.05 212.97 325.06 212.99 324.23 209.26 324.2 209.29 323.34 205.6 323.34 205.62 322.49 201.93 322.47 201.91 321.68 198.24 321.65 198.23 320.84 194.55 320.81 194.54 319.94 190.84 319.94 190.83 319.14 186.24 319.1 186.27 318.26 181.61 318.24 181.65 317.43 175.2 317.4"/>
  <polygon class="cls-4" points="163.3 292.64 160.57 296.3 175.34 300.38 175.17 301.06 177.85 301.15 177.89 302 181.43 302.13 181.55 302.81 184.32 302.98 184.45 303.79 187 303.83 187.3 304.55 189.68 304.68 189.94 305.28 192.45 305.57 192.62 306.34 195.17 306.26 195.43 307.11 199.04 307.28 199.17 308.09 202.57 308 202.96 308.89 226.7 314.89 226.7 314.04 214.66 309.74 192.57 302.13 191.09 301.36 189.94 301.36 188.49 301.32 187.98 300.6 186.79 300.43 186.15 299.7 184.87 299.74 183.34 299.36 183.38 298.77 182.06 298.72 181.3 298.85 180.57 297.96 179.3 297.91 178.83 297.11 177.38 297.19 176.36 297.45 176.19 296.64 176.15 296.09 175.21 296.34 174.53 296.47 174.28 296.04 171.68 295.4 172.32 294.51 170.87 294.64 171.3 294.04 170.32 294.3 170.91 293.32 169.55 293.57 169.77 292.81 169.04 292.89 168.66 293.4 167.94 292.89 167.38 293.23 166.02 292.55 165.3 293.32 164.66 291.91 163.51 292.89 163.3 292.64"/>
  <polygon class="cls-4" points="177 234.81 193.85 243.32 195.04 242.64 189.6 239.74 186.87 236.68 177 234.81"/>
  <polygon class="cls-4" points="200.66 247.06 208.32 251.49 210.02 250.64 200.66 247.06"/>
  <polygon class="cls-4" points="217.68 254.55 217.51 256.26 272.51 284.45 277.94 287.23 278.96 286.55 276.57 286.04 276.74 284.85 274.02 282.64 217.68 254.55"/>
  <polygon class="cls-4" points="263.47 222.89 267.21 220.17 316.91 264.6 263.47 222.89"/>
  <polygon class="cls-4" points="267.38 248.32 267.45 250.11 270.06 251.19 282 261.21 340.72 301.68 344.81 303.21 344.87 302.06 341.04 298.87 295.53 266.38 274.66 252.53 269.81 249.28 267.38 248.32"/>
  <polygon class="cls-4" points="231.38 215.32 231.26 218.7 232.24 218.77 232.31 219.53 233.23 219.53 233.2 220.3 234.13 220.39 234.96 220.36 234.99 221.22 235.88 221.32 236.01 221.93 236.94 222.12 236.9 222.88 237.77 222.98 238.79 223.04 238.72 223.78 239.65 223.87 239.78 224.51 240.61 224.86 240.61 225.47 241.5 225.44 242.27 225.53 242.46 226.33 243.38 226.27 244.15 226.43 244.34 227.19 245.14 227.16 245.2 227.96 246.22 228.05 247.02 228.05 247.15 228.88 247.98 228.88 248.81 228.91 248.94 229.62 249.93 229.78 278.49 248.41 280.31 248.57 280.34 247.68 279.51 247.49 279.41 246.91 278.65 247.01 278.36 245.99 237.13 217.3 236.17 217.2 235.98 216.12 234.93 216.34 234.1 216.18 234.1 215.26 231.38 215.32"/>
  <polygon class="cls-4" points="247.09 185.45 247.21 186.47 246.19 186.34 246.11 186.98 247.09 187.19 247.04 188 248.11 188.09 247.98 188.77 249.04 188.85 248.91 189.66 249.89 189.74 249.85 190.38 250.74 190.55 250.79 191.4 251.72 191.45 251.64 192.13 252.66 192.34 252.57 192.98 253.68 193.32 253.6 193.91 254.53 194.09 254.45 194.98 255.34 194.85 255.34 195.66 256.32 195.83 256.32 196.47 257.09 196.6 257.17 197.28 258.15 197.45 258.23 198.17 259 198.34 259.04 199.02 259.94 199.15 260.02 199.96 260.74 200 260.83 200.81 261.72 200.77 261.81 201.66 262.87 201.74 262.87 202.38 308.7 243.19 309.81 243.49 309.64 242.43 309.21 242.55 309 241.87 308.06 241.7 308.02 241.06 306.96 240.89 307.09 240.09 306.11 240.17 306.02 239.28 305.17 239.23 305.21 238.38 304.23 238.38 299.64 232.68 249.04 186.64 248.87 185.66 247.09 185.45"/>
  <polygon class="cls-11" points="229.55 170.17 229.56 171.87 230.48 171.87 230.5 172.74 231.41 172.74 231.43 173.59 232.32 173.59 232.35 174.41 233.24 174.44 233.27 175.3 234.15 175.27 234.19 176.14 235.05 176.13 235.1 176.98 236.91 177 236.95 177.83 237.83 177.82 237.87 178.65 239.73 178.7 239.72 177.85 238.82 177.98 238.8 177 237.9 177.1 237.86 176.15 237 176.27 236.96 175.32 236.1 175.4 236.04 174.47 235.07 174.47 235.1 173.59 234.23 173.65 234.2 172.74 233.26 172.83 233.28 171.88 232.37 171.88 232.36 171.05 231.52 171.07 231.45 170.18 229.55 170.17"/>
</svg>